<?xml version="1.0" encoding="utf-8"?>
<!-- Generator: Adobe Illustrator 27.8.1, SVG Export Plug-In . SVG Version: 6.00 Build 0)  -->
<svg version="1.1" id="Layer_1" xmlns="http://www.w3.org/2000/svg" xmlns:xlink="http://www.w3.org/1999/xlink" x="0px" y="0px"
	 viewBox="0 0 300 500" style="enable-background:new 0 0 300 500;" xml:space="preserve">
<style type="text/css">
	.st0{fill:none;stroke:#000000;stroke-width:2;stroke-miterlimit:10;}
</style>
<circle class="st0" cx="150.5" cy="143.5" r="112.5"/>
<polyline class="st0" points="205.99,375.21 151,439 151,311 "/>
<polyline class="st0" points="94.01,375.21 149,439 149,311 "/>
<polyline class="st0" points="205.99,375.21 151,439 151,311 "/>
<polyline class="st0" points="94.01,375.21 149,439 149,311 "/>
<g>
	<g>
		<path d="M143.64,200.44c0.32-7.29,0.49-23.98,0.49-34.02v-7.61c0-8.91-0.16-13.93-0.49-20.41l-13.28-1.46v-5.67l24.46-9.72
			l2.43,1.62l-0.49,21.87v21.38c0,10.04,0.16,26.73,0.49,34.02H143.64z M168.59,194.77v5.67h-37.26v-5.67l17.82-3.24h3.24
			L168.59,194.77z M139.59,93.03c0-6.16,4.7-10.21,10.69-10.21s10.69,4.05,10.69,10.21c0,5.99-4.7,10.21-10.69,10.21
			S139.59,99.02,139.59,93.03z"/>
	</g>
</g>
</svg>
